<svg t="1570788454383" class="icon" viewBox="0 0 1024 1024" version="1.1" xmlns="http://www.w3.org/2000/svg" p-id="4017" width="36" height="36"><path d="M512 512m-512 0a512 512 0 1 0 1024 0 512 512 0 1 0-1024 0Z" fill="#99C0FF" p-id="4018"></path><path d="M827.874286 430.205714m-22.525715 0l-88.617142 0q-22.525714 0-22.525715-22.525714l0 0.011429q0-22.525714 22.525715-22.525715l88.617142 0q22.525714 0 22.525715 22.525715l0-0.011429q0 22.525714-22.525715 22.525714Z" fill="#173A8D" p-id="4019"></path><path d="M782.217594 274.99091m-15.928085 15.928086l-62.661783 62.661782q-15.928085 15.928085-31.85617 0l0.008081 0.008081q-15.928085-15.928085 0-31.85617l62.661783-62.661783q15.928085-15.928085 31.85617 0l-0.008081-0.008081q15.928085 15.928085 0 31.856171Z" fill="#173A8D" p-id="4020"></path><path d="M643.291429 190.754286m0 22.525714l0 88.617143q0 22.525714-22.525715 22.525714l0.011429 0q-22.525714 0-22.525714-22.525714l0-88.617143q0-22.525714 22.525714-22.525714l-0.011429 0q22.525714 0 22.525715 22.525714Z" fill="#173A8D" p-id="4021"></path><path d="M411.702857 568.4l-144.651428-102.434286a57.245714 57.245714 0 0 1-13.634286-79.794285l34.285714-48.342858a58.548571 58.548571 0 0 1 37.542857-24.148571 56.868571 56.868571 0 0 1 42.834286 9.691429l144.628571 102.422857a22.525714 22.525714 0 0 0 31.394286-5.36 22.525714 22.525714 0 0 0-5.36-31.394286l-144.64-102.434286a102.285714 102.285714 0 0 0-142.594286 24.365715l-34.045714 48.068571a104 104 0 0 0-18.16 77.28 101.622857 101.622857 0 0 0 41.737143 66.411429l144.628571 102.422857a22.525714 22.525714 0 0 0 31.394286-5.405715 22.525714 22.525714 0 0 0-5.36-31.348571zM754.56 644.171429l-105.142857-142.857143a22.525714 22.525714 0 0 0-31.508572-4.834286 22.525714 22.525714 0 0 0-4.788571 31.485714l105.142857 142.857143a57.302857 57.302857 0 0 1-12.182857 80l-48.525714 35.782857a57.302857 57.302857 0 0 1-80-12.182857l-105.142857-142.857143a22.525714 22.525714 0 0 0-31.485715-4.788571 22.525714 22.525714 0 0 0-4.788571 31.485714l105.142857 142.857143a102.411429 102.411429 0 0 0 143.005714 21.714286l48.502857-35.657143a102.411429 102.411429 0 0 0 21.771429-143.005714z" fill="#173A8D" p-id="4022"></path><path d="M334.12856 377.66552m18.384082 13.016656l116.479157 82.47184q18.384082 13.016656 5.367426 31.400738l0.006604-0.009327q-13.016656 18.384082-31.400738 5.367426l-116.479157-82.47184q-18.384082-13.016656-5.367426-31.400738l-0.006604 0.009328q13.016656-18.384082 31.400738-5.367427Z" fill="#173A8D" p-id="4023"></path><path d="M547.888662 544.09132m13.281597 18.193598l87.22997 119.490674q13.281597 18.193598-4.912001 31.475195l0.009231-0.006739q-18.193598 13.281597-31.475195-4.912001l-87.229969-119.490674q-13.281597-18.193598 4.912001-31.475195l-0.009231 0.006739q18.193598-13.281597 31.475194 4.912001Z" fill="#173A8D" p-id="4024"></path></svg>