<svg t="1570788638711" class="icon" viewBox="0 0 1024 1024" version="1.1" xmlns="http://www.w3.org/2000/svg" p-id="6690" width="36" height="36"><path d="M252.733 112.828c-8.928-15.639-3.277-33.454 11.118-42.366 5.635-3.277 12.189-4.368 17.854-4.368 10.006 1.092 18.944 6.735 24.594 15.644l41.155 70.192-54.649 31.099-40.076-70.198zM782.291 112.828c8.922-15.639 3.284-34.545-12.205-42.366-15.658-8.912-34.604-2.182-43.54 11.094l-40.076 70.192 54.649 31.093 41.172-70.015zM548.206 33.718c0-17.814-14.575-31.091-31.158-31.091-17.856 0-32.236 13.278-32.236 31.091v81.295h63.568v-81.295h-0.175zM955.17 254.124c-5.651-8.908-14.572-14.541-24.594-15.635-5.651 0-12.221 0-17.854 3.27l-70.316 41.102 31.149 54.548 71.402-41.095c13.49-7.638 19.134-26.546 10.213-42.191M865.114 939.291h-22.811c2.036-3.049 3.040-7.257 3.040-11.302v-31.026c0-14.51-11.31-25.811-25.85-25.811h-601.562c-14.519 0-25.843 11.302-25.843 25.811v31.026c0 4.045 1.019 8.255 3.049 11.302h-22.803c-14.541 0-25.851 11.293-25.851 25.794v31.033c0 14.503 11.31 25.804 25.851 25.804h693.799c14.525 0 25.85-11.302 25.85-25.804v-31.033c-1.026-13.324-12.342-25.794-26.868-25.794M810.16 811.687h-585.285v-308.24c0-161.302 131.501-291.509 293.281-291.509 161.586 0 293.277 130.209 293.277 291.509v308.239h-1.268zM192.625 284.132l-71.409-41.1c-3.278-2.182-7.827-3.275-11.118-3.275-12.205-1.091-24.588 4.366-31.149 15.639-8.928 15.639-4.364 33.462 11.109 42.37l71.417 41.1 31.15-54.736z" fill="#ee5566" p-id="6691"></path></svg>